inDegrees=no
num_controls=7
num_derivatives=13
num_iterations=141
num_multipliers=7
num_parameters=0
num_slacks=7
num_states=26
objective=6.142009
objective_accelerations=0.639543
objective_balance=0.056952
objective_effort=0.546541
objective_height=4.782341
objective_ligament=0.116632
solver_duration=1458.909369
status=Solve_Succeeded
success=true
DataType=double
version=3
OpenSimVersion=4.4-2022-07-23-0e9fedc
endheader
time	/jointset/ground_pelvis/pelvis_tilt/value	/jointset/ground_pelvis/pelvis_tx/value	/jointset/ground_pelvis/pelvis_ty/value	/jointset/hip_l/hip_flexion_l/value	/jointset/hip_l/hip_adduction_l/value	/jointset/hip_l/hip_rotation_l/value	/jointset/back/lumbar_extension/value	/jointset/patellofemoral_l/patellar_flexion_l/value	/jointset/knee_l/knee_flexion_l/value	/jointset/knee_l/knee_adduction_l/value	/jointset/knee_l/knee_rotation_l/value	/jointset/ankle_l/ankle_angle_l/value	/jointset/subtalar_l/subtalar_angle_l/value	/jointset/ground_pelvis/pelvis_tilt/speed	/jointset/ground_pelvis/pelvis_tx/speed	/jointset/ground_pelvis/pelvis_ty/speed	/jointset/hip_l/hip_flexion_l/speed	/jointset/hip_l/hip_adduction_l/speed	/jointset/hip_l/hip_rotation_l/speed	/jointset/back/lumbar_extension/speed	/jointset/patellofemoral_l/patellar_flexion_l/speed	/jointset/knee_l/knee_flexion_l/speed	/jointset/knee_l/knee_adduction_l/speed	/jointset/knee_l/knee_rotation_l/speed	/jointset/ankle_l/ankle_angle_l/speed	/jointset/subtalar_l/subtalar_angle_l/speed	/forceset/tau_hip_flexion_l	/forceset/tau_hip_adduction_l	/forceset/tau_hip_rotation_l	/forceset/tau_knee_flexion_l	/forceset/tau_ankle_angle_l	/forceset/tau_subtalar_angle_l	/forceset/tau_lumbar_extension	lambda_cid13_p0	lambda_cid13_p1	lambda_cid13_p2	lambda_cid13_p3	lambda_cid13_p4	lambda_cid13_p5	lambda_cid14_p0	/jointset/ground_pelvis/pelvis_tilt/accel	/jointset/ground_pelvis/pelvis_tx/accel	/jointset/ground_pelvis/pelvis_ty/accel	/jointset/hip_l/hip_flexion_l/accel	/jointset/hip_l/hip_adduction_l/accel	/jointset/hip_l/hip_rotation_l/accel	/jointset/back/lumbar_extension/accel	/jointset/patellofemoral_l/patellar_flexion_l/accel	/jointset/knee_l/knee_flexion_l/accel	/jointset/knee_l/knee_adduction_l/accel	/jointset/knee_l/knee_rotation_l/accel	/jointset/ankle_l/ankle_angle_l/accel	/jointset/subtalar_l/subtalar_angle_l/accel	gamma_cid13_p0	gamma_cid13_p1	gamma_cid13_p2	gamma_cid13_p3	gamma_cid13_p4	gamma_cid13_p5	gamma_cid14_p0
0.5	-0.1358949347561598	-0.05537497135935957	0.7910395706303762	1.021219106134058	-0.3267265731780537	-0.0735123288067573	-0.8002465159149527	0.9538295576424907	0.9538295576424812	-0.09113590658469613	-0.1744906617338899	0.1351007159866008	0.01157880898350869	-0.2325930186117619	-0.1757360137033633	-0.4720581732362066	1.828571546955436	-0.0222454983505259	0.5719098173427638	-0.8287626465354687	1.862641912999179	1.862641912999318	0.1729736566021451	0.000241491442207464	0.3913404129660012	0.1078638620293714	-0.3023347205447172	0.02132399539074992	-0.005886538856085664	-0.2386480375687177	0.09385581500719276	0.04678100871163439	0.3461881727723922	-13.91343719392856	-19.11933115720532	4.008480262073633	-11.35533887034704	-702.5039686199924	-72.21124262372628	-8.40300936497048	0.3970718669327765	0.7740657886661559	-0.2026161712393467	-1.684804140413089	0.3441076846461039	-0.5329430018534439	2.056947377917153	-1.506075162849075	-1.506075162849039	-0.2313488060229305	-0.004238217078388937	-0.2950346338543839	0.3334333876702257	-3.221763616775798e-07	-2.541807107186905e-07	1.862692341123112e-06	1.760391983262845e-07	-3.438050678951853e-07	6.819453652308726e-08	-2.79835899480572e-07
0.51	-0.1382006055240503	-0.05709362110350205	0.7863099141766106	1.039417819588739	-0.3269328849664094	-0.06781884752627951	-0.8084306588589717	0.9723778190815441	0.9723778190815309	-0.08942081026453001	-0.1744886055164611	0.1389982882019366	0.01267255487115059	-0.2285077362078554	-0.167995012391891	-0.4737664422585453	1.810929125080856	-0.01902465613392641	0.5667249100720255	-0.807992334054893	1.846752479347254	1.846752479347282	0.1700422474167855	0.0001693831206974254	0.3881078671264257	0.1108584513218374	-0.3094249006643956	0.02144205302436601	-0.006002247099954039	-0.2422604765056573	0.09323102140239616	0.04670431918625148	0.352954796539759	-14.4131361311764	-18.92035152343027	3.887456626503417	-11.1839998411225	-707.5793102225254	-71.94113227927802	-7.639232415564249	0.4192358967402096	0.7739897566543269	-0.1389986437398618	-1.840303880071386	0.3096719892992896	-0.5207558353317762	2.098114414779067	-1.669005693451427	-1.669005693467922	-0.3245660164617118	-0.008384013055817308	-0.3472919546351181	0.2782714121985243	-3.116267843411413e-07	-2.541351877614575e-07	1.816550009945114e-06	1.699099929546258e-07	-3.28297487167107e-07	1.045529317592145e-07	-2.754820613932786e-07
0.52	-0.14046442757397	-0.05873488634367559	0.7815663617574196	1.057432840290862	-0.3271072684327768	-0.06217911356763562	-0.8164048904318535	0.9907594605386593	0.9907594605386372	-0.08773513384453069	-0.1744872077569032	0.1428615494797508	0.01379540659414984	-0.2242232750191608	-0.1602591129095767	-0.4748373663212379	1.791832996442647	-0.01585983395201719	0.5611603529753801	-0.7867803723082982	1.829317916611839	1.829317916611757	0.1670896765646568	0.0001097998644645328	0.3844782254618138	0.1136850291008606	-0.3165150807840693	0.02156011065797681	-0.006117955343675942	-0.2458729154426015	0.09260622779759278	0.04662762966085789	0.3597214203071317	-14.9137688723256	-18.72461506561224	3.770842902866408	-11.069021124558	-712.7009035565266	-71.73538762384403	-6.906984125997951	0.4369076238900781	0.7730454228348204	-0.07514717931010666	-1.975545493138895	0.3329036777079748	-0.6088729670350144	2.145277231120784	-1.815100979546966	-1.815100979546951	-0.2355811393767999	-0.001733204023135229	-0.3744537988613053	0.2998310849817004	-2.962436726256147e-07	-2.074016130234397e-07	1.777719297102892e-06	1.692877700465391e-07	-3.080388741399552e-07	1.493215843782762e-07	-2.654186918055579e-07
0.53	-0.1426844639008591	-0.06029889487587371	0.7768152930380963	1.075249827690182	-0.3272502446268676	-0.05659687635426533	-0.824164929499536	1.00895921395319	1.008959213953188	-0.0860789758320895	-0.1744863268619895	0.1466866128094382	0.01494574060382154	-0.2197530103078193	-0.1525507144401458	-0.4752685441360714	1.771332235317485	-0.01274772225000152	0.5552236686852348	-0.7651701090332466	1.810387005360188	1.810387005360145	0.164139633071426	6.179903577880717e-05	0.3804730121152778	0.1163504633568546	-0.3233722835249894	0.02157358378961927	-0.006181544172034203	-0.2494960316262508	0.09180276215883414	0.04640748767462505	0.3662113578829268	-15.4742607707118	-18.45268431534383	3.638182830438176	-10.79432835903161	-717.6963226628625	-71.43079738541006	-6.213324112548041	0.4567051585247531	0.7685527153087759	-0.01098755093264862	-2.122215089670425	0.2982872968548576	-0.5958185704445694	2.177500704593563	-1.968898311556688	-1.968898311550877	-0.3250789114769652	-0.006666134437171303	-0.4227678854955461	0.245026385760732	-2.785870579766764e-07	-1.501989105477493e-07	1.734343624303117e-06	1.691406506041664e-07	-2.861566925955242e-07	1.933586998223842e-07	-2.530617582689198e-07
